# xmcd
#
# Track frame offsets: 
#        150
#        25264
#        57161
#        80399
#        100850
#        125805
#        147061
#        164048
#        221555
#        243995
#        276977
#
# Disc length: 3802 seconds
#
# Revision: 1
# Processed by: cddbd v1.5.2PL0 Copyright (c) Steve Scherf et al.
# Submitted via: ExactAudioCopy v0.95a3
#
DISCID=9f0ed80b
DTITLE=Various Artist - You've Been Jazzed 2 - Disc 1
DYEAR=2007
DGENRE=Jazz
TTITLE0=01 - Jimmy Jazz - Babylon
TTITLE1=02 - Water - Egypt
TTITLE2=03 - Collective Sound Members - Mystique
TTITLE3=04 - Out of Character - Bom Bay
TTITLE4=05 - Collective Sound Members - Raindance
TTITLE5=06 - Monte La Rue - Paris Minuit
TTITLE6=07 - Monte La Rue - Malibu Marina
TTITLE7=08 - S.W. - Cançao da Manhâ
TTITLE8=09 - Floris - Lucky
TTITLE9=10 - Lounge Conjuction - Moliz in the Sun
TTITLE10=11 - Monte La Rue - Boa Vinda
EXTD=YEAR: 2007
EXTT0=
EXTT1=
EXTT2=
EXTT3=
EXTT4=
EXTT5=
EXTT6=
EXTT7=
EXTT8=
EXTT9=
EXTT10=
PLAYORDER=
